<defs>
<font horiz-adv-x="617" ><font-face
    font-family="trocchi-bold"
    units-per-em="1000"
    panose-1="0 0 0 0 0 0 0 0 0 0"
    ascent="750"
    descent="-250"
    alphabetic="0" />
<missing-glyph horiz-adv-x="30" />
<glyph unicode=" " glyph-name="space" horiz-adv-x="244" />
<glyph unicode="!" glyph-name="exclam" horiz-adv-x="418" d="M236 247L296 722H129L189 247H236ZM301 127T301 90T275 27T211 0T148 26T121 90T147 153T211 180T274 154Z" />
<glyph unicode="&quot;" glyph-name="quotedbl" horiz-adv-x="326" d="M229 750Q204 750 190 737T175 702L210 450Q213 435 228 435Q244 435 246 450Q281 699 281 702Q281 750 229 750ZM92 750Q67 750 53 737T38 702L73 450Q76 435 91 435Q108 435 109 450Q144
699 144 702Q144 750 92 750Z" />
<glyph unicode="#" glyph-name="numbersign" horiz-adv-x="632" d="M33 322V244H564V322H33ZM590 762L510 784L271 -31L351 -53L590 762ZM287 784L48 -31L128 -53L367 762L287 784ZM80 524V446H611V524H80Z" />
<glyph unicode="$" glyph-name="dollar" horiz-adv-x="681" d="M321 810L368 811V-93L321 -94V810ZM44 181Q44 219 68 248T140 277Q177 277 205 252T233 192Q233 164 216 139T179 109Q250 72 338 72Q413 72 456 99T499 172Q499 214 463 243T307 315Q162 367 108
419T52 549V552Q52 639 132 698T333 757Q378 757 422 749T510 721T579 666T606 580V575Q605 539 586 515T523 490Q485 490 459 510T433 566Q433 592 447 615T478 648Q438 665 374 665Q202 665 195 576Q195 539 224 514T350 451Q421 424 463 405T542 365T597 321T625
272T638 206V198Q638 107 565 47T350 -13Q270 -13 203 6T90 71T44 181Z" />
<glyph unicode="%" glyph-name="percent" horiz-adv-x="893" d="M122 552Q122 602 146 636T219 671T291 636T316 551Q316 500 291 463T220 426Q173 426 148 463T122 552ZM23 626T23 549T74 417T220 361Q313 361 363 416T414 548Q414 625 363 681T219 738Q126 738
75 682ZM489 247T489 170T540 38T686 -18Q779 -18 829 37T880 169Q880 246 829 302T685 359Q592 359 541 303ZM588 173Q588 223 612 257T685 292T757 257T782 172Q782 121 757 84T686 47Q639 47 614 84T588 173ZM665 739L156 16L224 -34L733 689L665 739Z" />
<glyph unicode="&amp;" glyph-name="ampersand" horiz-adv-x="884" d="M649 -17Q595 -17 553 1T460 76Q409 32 362 9T251 -14Q157 -14 98 35T39 165Q39 186 40 202T48 235T59 261T77 286T97 307T124 329T155 351T194 376T237 404Q166 521 166 578Q166 652 222
694T381 737Q451 737 503 699T555 602Q555 539 517 492T384 385L495 226L641 401H557V478H838V401H750L539 151Q589 67 644 67Q663 67 674 70T699 83T718 118T725 183V253H820V192Q820 86 786 35T649 -17ZM339 460Q350 467 369 480T398 500T421 518T440 539T451
563T456 593Q455 627 434 645T381 663Q339 663 313 644T287 586Q287 572 293 554T305 523T323 490T339 460ZM276 88Q311 88 348 105T408 149L287 328Q173 257 173 190Q173 138 202 113T276 88Z" />
<glyph unicode="(" glyph-name="parenleft" horiz-adv-x="426" d="M166 355Q166 211 209 108T339 -11V-73Q200 -59 118 68T36 355Q36 457 70 549T175 708T339 783V721Q253 705 210 602T166 355Z" />
<glyph unicode=")" glyph-name="parenright" horiz-adv-x="426" d="M209 355Q209 499 166 602T36 721V783Q175 769 257 642T339 355Q339 253 305 161T200 2T36 -73V-11Q122 5 165 108T209 355Z" />
<glyph unicode="*" glyph-name="asterisk" horiz-adv-x="789" d="M539 152L395 389L250 152L166 227L353 421L100 500L140 595L373 462L341 722H448L416 462L649 595L689 500L436 421L623 227L539 152Z" />
<glyph unicode="+" glyph-name="plus" horiz-adv-x="696" d="M122 231V328H574V231H122ZM292 515H404V45H292V515Z" />
<glyph unicode="," glyph-name="comma" horiz-adv-x="342" d="M108 -94L139 -140Q142 -137 145 -136Q256 -62 256 41Q256 100 223 131T146 163Q104 163 81 138T58 79Q58 47 77 24T131 0T182 23Q186 18 186 -3Q186 -25 161 -52T108 -94Z" />
<glyph unicode="-" glyph-name="hyphen" horiz-adv-x="406" d="M345 254H61V341H345V254Z" />
<glyph unicode="." glyph-name="period" horiz-adv-x="397" d="M288 127T288 90T262 27T198 0T135 26T108 90T134 153T198 180T261 154Z" />
<glyph unicode="/" glyph-name="slash" horiz-adv-x="582" d="M400 791L120 -54L216 -85L498 759L400 791Z" />
<glyph unicode="0" glyph-name="zero" horiz-adv-x="550" d="M33 386T33 264T96 65T276 -13Q391 -13 454 65T517 264Q517 386 454 462T275 538T96 462ZM158 268Q158 348 186 402T275 457T364 402T392 265T364 130T276 75Q215 75 187 131T158 268Z" />
<glyph unicode="1" glyph-name="one" horiz-adv-x="398" d="M42 0V87H154V408L52 364L22 453L206 524H279V87H378V0H42Z" />
<glyph unicode="2" glyph-name="two" horiz-adv-x="517" d="M504 -80L452 -85L406 0H70Q61 97 60 97Q267 255 279 264Q324 298 341 323T359 383Q359 420 329 448T253 476Q193 476 151 429Q170 424 185 408T201 368Q201 332 180 312T124 291Q85 291 64 317T42 376V379Q42
441 111 490T274 540Q367 540 425 494T483 361Q483 310 455 264T345 169L219 87H486L504 -80Z" />
<glyph unicode="3" glyph-name="three" horiz-adv-x="540" d="M227 -149H223H218Q146 -149 97 -121T44 -44Q44 -13 61 6T113 26Q143 26 161 5T180 -42Q180 -56 175 -78Q266 -78 328 -38T391 59V65Q390 109 358 141T259 174Q232 174 204 169L190 251Q266 266 307
293T349 368V371Q349 412 318 442T244 473Q185 473 134 429Q152 428 169 408T187 364Q187 332 167 312T116 292Q78 292 55 317T31 371Q31 451 92 495T251 539Q352 539 406 493T463 383V379Q463 269 338 237Q427 228 471 181T516 64Q516 -26 436 -85T227 -149Z"
/>
<glyph unicode="4" glyph-name="four" horiz-adv-x="537" d="M544 -122V-189H197V-122H311V0H49L28 80L289 531L435 516V83H549L540 0H435V-122H544ZM311 83V395L146 83H311Z" />
<glyph unicode="5" glyph-name="five" horiz-adv-x="531" d="M221 -149Q149 -149 97 -121T44 -45Q44 -13 60 6T112 26Q143 26 161 6T180 -42Q180 -60 175 -78Q265 -78 324 -38T383 69V78Q373 221 183 221Q150 221 101 214L72 249L112 524H446L417 424H197L174
303Q209 307 224 307Q358 307 430 247T510 98Q511 91 511 78Q511 -22 435 -83T221 -149Z" />
<glyph unicode="6" glyph-name="six" horiz-adv-x="661" d="M613 235Q613 135 543 62T357 -12H349Q296 -11 249 8T161 66T96 171T72 326Q72 511 148 624T359 737Q446 737 507 699T568 600Q568 558 547 539T482 520Q424 520 406 581Q404 591 404 596Q404 632 429
657Q406 662 389 662Q342 662 308 635T257 570T231 493T220 427L218 400Q267 468 383 468Q483 466 548 401T613 235ZM344 87Q416 87 450 124T484 226Q484 300 454 333T358 367Q262 364 218 296Q217 288 217 278V272Q217 188 251 139T344 87Z" />
<glyph unicode="7" glyph-name="seven" horiz-adv-x="509" d="M482 444L232 -165Q209 -220 159 -220Q134 -220 116 -203T98 -156Q98 -129 113 -99L383 449H144V302H48V524H449L482 444Z" />
<glyph unicode="8" glyph-name="eight" horiz-adv-x="628" d="M583 175Q582 226 552 269T479 340T386 396T292 447T221 500T192 563Q192 608 221 636T303 665Q363 665 396 637T430 563Q430 530 415 502T379 459T337 432T300 417L285 413L346 359Q350 360 357 362T386
372T427 389T470 416T511 452T539 499T551 558Q551 633 484 685T315 737Q207 737 143 691T78 568Q78 516 105 472T174 401T262 345T351 295T419 240T447 171Q447 122 410 97T312 72Q176 72 176 183Q176 204 181 222T196 254T216 279T241 299T267 313T292 322T313
328T328 332L333 333L256 376Q253 376 234 371T181 351T117 314T65 252T42 162Q42 84 118 36T312 -13Q430 -13 506 37T583 171V175Z" />
<glyph unicode="9" glyph-name="nine" horiz-adv-x="659" d="M185 507V505Q187 377 311 377Q359 378 397 394T451 428Q452 436 452 446V452Q452 536 418 585T325 637Q255 637 220 600T185 507ZM291 -14Q206 -14 146 30T85 133Q85 177 106 201T171 226Q207 226
227 203T248 150Q248 112 229 93Q264 76 296 76Q335 76 365 103T410 169T436 246T448 312L451 339Q406 276 286 276Q193 276 127 336T56 496V508Q56 602 127 669T312 736H320Q373 735 420 716T508 658T573 553T597 398Q597 211 513 99T291 -14Z" />
<glyph unicode=":" glyph-name="colon" horiz-adv-x="397" d="M288 471T288 434T262 371T198 344T135 370T108 434T134 497T198 524T261 498ZM288 127T288 90T262 27T198 0T135 26T108 90T134 153T198 180T261 154Z" />
<glyph unicode=";" glyph-name="semicolon" horiz-adv-x="397" d="M288 471T288 434T262 371T198 344T135 370T108 434T134 497T198 524T261 498ZM159 -87L187 -129Q190 -126 193 -125Q295 -57 295 37Q295 91 265 120T194 149Q155 149 134 126T113 72Q113 42 131
21T180 0Q212 0 227 21Q231 16 231 -3Q231 -24 209 -48T159 -87Z" />
<glyph unicode="=" glyph-name="equal" horiz-adv-x="453" d="M47 243V171H406V243H47ZM47 427V355H406V427H47Z" />
<glyph unicode="&gt;" glyph-name="greater" horiz-adv-x="450" d="M435 391V295L44 126V219L326 349L44 483V574L435 391Z" />
<glyph unicode="?" glyph-name="question" horiz-adv-x="532" d="M259 208H217Q217 257 231 300T266 375T306 435T341 494T356 554Q356 664 241 664Q207 664 177 650T134 608Q163 608 189 591T215 536Q215 500 193 477T136 454Q93 454 68 481T40 541V551Q40 636
108 686T267 737Q495 737 499 551V548Q499 508 478 470T426 400T361 339T299 275T259 208ZM321 70Q321 38 297 14T240 -10Q207 -10 184 14T160 70Q160 103 183 127T240 151Q272 151 296 127T321 70Z" />
<glyph unicode="@" glyph-name="at" horiz-adv-x="847" d="M301 316Q294 214 367 214Q401 214 442 263T492 352L497 380Q502 408 507 437T513 469Q509 475 502 484T475 509T440 525Q387 525 347 459T301 316ZM729 389Q729 514 654 599T459 684Q311 684 216 578T121
322Q121 206 202 128T429 50Q483 50 545 64T649 104L679 55Q631 23 557 4T420 -15Q242 -15 136 84T29 335Q29 506 152 628T455 750Q542 750 613 718T727 634T794 518T818 388Q818 287 756 213T599 139Q497 139 490 267Q468 216 424 183T335 148Q286 145 246 187T205
305Q205 371 238 437T327 548T446 592Q458 592 479 574T516 538L532 519Q545 556 549 568H637Q636 563 619 485T586 330T570 243Q570 184 611 184Q647 184 688 239T729 389Z" />
<glyph unicode="A" glyph-name="A" horiz-adv-x="841" d="M327 87V0H9V87H115L344 742H517L738 87H832V0H468V87H577L527 248H269L215 87H327ZM503 324L402 648L294 324H503Z" />
<glyph unicode="B" glyph-name="B" horiz-adv-x="744" d="M381 0H20V88H139V652H20V742H381Q419 742 456 738T534 720T605 685T653 626T667 540Q658 432 532 396Q707 350 707 207Q707 167 696 136T666 83T619 46T564 22T502 8T440 2T381 0ZM284 88Q290 88 302
88Q341 88 360 88T411 91T459 97T496 111T527 133T544 167T552 214Q552 344 363 344H284V88ZM284 434H363Q432 434 472 455T512 536Q512 569 501 592T474 626T427 644T372 651T305 652Q291 652 284 652V434Z" />
<glyph unicode="C" glyph-name="C" horiz-adv-x="718" d="M706 264Q687 133 608 60T391 -13Q234 -13 139 101T44 379Q44 530 146 643T405 757Q469 757 528 734T630 657T672 532Q672 498 646 470T576 441Q541 441 518 459T493 512V519Q493 557 518 577T572 597Q528
662 419 663Q350 664 301 620T231 512T209 377Q209 261 266 176T426 90Q471 90 505 105T561 147T594 202T616 264H706Z" />
<glyph unicode="D" glyph-name="D" horiz-adv-x="822" d="M20 652V742H258Q342 742 409 735T548 703T668 640T747 530T778 366Q778 0 284 0H20V87H139V652H20ZM284 87Q340 87 385 92T476 116T553 163T603 243T623 362Q623 436 603 490T553 574T475 623T385 646T284
651V87Z" />
<glyph unicode="E" glyph-name="E" horiz-adv-x="772" d="M20 0V87H139V652H20V742H728V459H608V652H284V417H429V517H514V217H429V341H284V87H608V279H728V0H20Z" />
<glyph unicode="F" glyph-name="F" horiz-adv-x="716" d="M20 0V87H139V652H20V742H709V464H589V652H284V432H442V535H527V232H442V356H284V87H411V0H20Z" />
<glyph unicode="G" glyph-name="G" horiz-adv-x="817" d="M623 113Q592 50 540 19T405 -13H394Q283 -12 202 46T82 189T44 370Q44 470 89 557T222 700T424 757H427Q495 757 559 737T671 670T718 562Q718 527 694 500T625 472Q590 472 566 492T539 546V553Q539
577 555 598T591 627Q532 663 461 663H456Q347 661 278 582T209 374Q209 250 262 170T422 90H429Q487 91 530 129T581 218V297H450V371H811V297H716V6H657L623 113Z" />
<glyph unicode="H" glyph-name="H" horiz-adv-x="852" d="M713 87H832V0H455V87H568V351H284V87H396V0H20V87H139V652H20V742H396V652H284V427H568V652H455V742H832V652H713V87Z" />
<glyph unicode="I" glyph-name="I" horiz-adv-x="426" d="M289 87V652H401V742H25V652H144V87H25V0H401V87H289Z" />
<glyph unicode="J" glyph-name="J" horiz-adv-x="584" d="M219 -98Q129 -98 73 -47T16 80Q16 133 46 161T117 190Q152 190 178 168T204 107Q204 84 195 69T176 49T156 37T147 22Q147 4 168 -9T214 -23Q238 -23 256 -16T285 7T302 38T312 83T315 132T316 190V652H176V742H568V652H461V242Q461
205 461 183T455 121T442 56T416 -2T373 -53T308 -85T219 -98Z" />
<glyph unicode="K" glyph-name="K" horiz-adv-x="849" d="M470 0H839V87H735L483 416L723 652H827V742H474V652H585Q358 439 327 409L308 390Q288 370 284 369V652H387V742H20V652H139V87H20V0H387V87H284V259L386 347L569 87H470V0Z" />
<glyph unicode="L" glyph-name="L" horiz-adv-x="671" d="M657 0H20V87H139V652H20V742H410V652H284V87H551V325H657V0Z" />
<glyph unicode="M" glyph-name="M" horiz-adv-x="1053" d="M390 0H29V87H157V652H20V742H380L533 311L676 742H1026V652H889V87H1033V0H638V87H745V638L555 91Q544 60 520 60Q508 60 497 68T481 88L267 646V87H390V0Z" />
<glyph unicode="N" glyph-name="N" horiz-adv-x="861" d="M352 87V0H20V87H138V652H20V742H316L635 218V652H511V742H847V652H735V0H605L240 602V87H352Z" />
<glyph unicode="O" glyph-name="O" horiz-adv-x="788" d="M394 662Q453 661 498 616T564 507T585 370T564 234T498 126T394 82T290 126T224 235T203 372T224 509T290 618T394 662ZM310 -13T394 -13T546 20T657 109T721 232T744 372T722 511T657 634T547 723T394
757T242 724T131 635T67 512T44 372T66 233T131 110T241 21Z" />
<glyph unicode="P" glyph-name="P" horiz-adv-x="689" d="M20 652V742H376Q677 742 677 533Q677 487 664 452T623 394T566 358T493 338T414 329T329 327H284V87H406V0H20V87H139V652H20ZM338 406Q371 406 394 408T443 417T485 437T511 473T522 529Q522 565 511
589T484 625T437 644T382 651T314 652Q294 652 284 652V406H338Z" />
<glyph unicode="Q" glyph-name="Q" horiz-adv-x="816" d="M834 149Q834 21 791 -28T668 -77Q580 -77 519 9Q461 -13 394 -13Q310 -13 242 20T131 109T67 232T44 372T66 511T131 634T241 723T394 757T546 724T657 635T721 512T744 372Q744 290 716 214T633 83Q670
43 708 43Q738 43 756 70T775 149V180H834V149ZM548 196Q585 275 585 370Q585 442 564 506T498 616T394 662Q335 662 290 618T224 509T203 372Q203 290 231 217Q274 290 358 296H372Q469 296 548 196ZM394 82Q433 82 466 101Q450 131 441 147T416 183T385 211T349
220Q300 220 262 159Q316 82 394 82Z" />
<glyph unicode="R" glyph-name="R" horiz-adv-x="782" d="M647 -15H643Q608 -15 584 -8T535 21T494 88T474 206Q471 251 462 282T443 326T424 340Q423 340 423 340T420 340T416 340T408 340T396 339T379 339T355 339T324 339T284 338V87H396V0H20V87H139V652H20V742H348Q394
742 425 741T501 733T576 714T635 679T678 621T693 538Q693 453 652 412T533 353Q572 335 594 300T622 227T631 155T644 98T673 75Q722 75 722 190V254H787V191Q784 71 752 28T647 -15ZM284 420Q325 420 344 420T394 421T438 426T472 434T500 448T518 469T531 499T534
538Q534 609 492 630T342 651H284V420Z" />
<glyph unicode="S" glyph-name="S" horiz-adv-x="672" d="M44 181Q44 219 68 248T140 277Q177 277 205 252T233 192Q233 164 216 139T179 109Q250 72 338 72Q413 72 456 99T499 172Q499 214 463 243T307 315Q162 367 108 419T52 549V552Q52 639 132 698T333 757Q378
757 422 749T510 721T579 666T606 580V575Q605 539 586 515T523 490Q485 490 459 510T433 566Q433 592 447 615T478 648Q438 665 374 665Q202 665 195 576Q195 539 224 514T350 451Q421 424 463 405T542 365T597 321T625 272T638 206V198Q638 107 565 47T350 -13Q270
-13 203 6T90 71T44 181Z" />
<glyph unicode="T" glyph-name="T" horiz-adv-x="751" d="M184 0V87H303V664H138V453H27V742H724V453H613V664H448V87H560V0H184Z" />
<glyph unicode="U" glyph-name="U" horiz-adv-x="811" d="M409 -13Q266 -13 195 59T124 252V652H9V742H379V652H267V258Q267 179 301 136T420 93Q591 93 591 261V652H472V742H802V652H690V267Q690 204 677 156T633 68T546 8T409 -13Z" />
<glyph unicode="V" glyph-name="V" horiz-adv-x="842" d="M331 52L120 652H8V742H395V652H285L442 150L597 652H458V742H834V652H722L509 52Q497 18 472 0T418 -19Q358 -19 331 52Z" />
<glyph unicode="W" glyph-name="W" horiz-adv-x="1114" d="M753 -16Q689 -16 671 46L553 453L430 46Q420 15 397 0T345 -16Q283 -16 266 46L99 652H-3V742H341V652H253L373 160L508 632H639L781 160L903 652H784V742H1109V652H1008L834 46Q816 -16 753 -16Z" />
<glyph unicode="X" glyph-name="X" horiz-adv-x="877" d="M382 0H6V87H125L356 365L140 652H38V742H414V652H326L454 478L595 652H476V742H832V652H720L513 402L752 87H871V0H455V87H566L416 289L250 87H382V0Z" />
<glyph unicode="Y" glyph-name="Y" horiz-adv-x="821" d="M210 0V87H329V321L125 652H6V742H379V652H270L425 397L589 652H479V742H808V652H694L474 319V87H586V0H210Z" />
<glyph unicode="Z" glyph-name="Z" horiz-adv-x="699" d="M487 655H163V430H57V742H641L656 655L227 87H554V316H660V0H66L52 87L487 655Z" />
<glyph unicode="[" glyph-name="bracketleft" horiz-adv-x="695" d="M527 -121H163V790Q527 791 527 790V713H288V-47H527V-121Z" />
<glyph unicode="\" glyph-name="backslash" horiz-adv-x="582" d="M416 -78L253 798L154 778L315 -97L416 -78Z" />
<glyph unicode="]" glyph-name="bracketright" horiz-adv-x="695" d="M160 786L524 787V-125Q160 -126 160 -125V-48H399V712H160V786Z" />
<glyph unicode="^" glyph-name="asciicircum" horiz-adv-x="450" d="M196 575H292L474 154H371L243 476L107 154H6L196 575Z" />
<glyph unicode="_" glyph-name="underscore" horiz-adv-x="416" d="M420 -69H-4V4H420V-69Z" />
<glyph unicode="a" glyph-name="a" horiz-adv-x="644" d="M502 -14H498Q385 -12 359 83Q333 39 286 13T181 -13Q118 -13 81 20T43 116Q43 161 75 193T152 242T243 275T321 315T353 373Q353 476 251 476Q208 476 175 460Q191 458 205 436T220 393V389Q220 359 198
339T140 319Q103 319 82 342T60 402V404Q61 464 122 501T262 539Q319 539 365 525T444 469T478 363V155Q478 69 527 69Q574 69 574 153V218H639V150Q639 -14 502 -14ZM207 64Q247 64 298 102T350 183V272Q306 237 254 210T182 166T162 119Q162 64 207 64Z" />
<glyph unicode="b" glyph-name="b" horiz-adv-x="590" d="M340 -13Q233 -13 170 77L132 0H67V662H-36V742H192V460Q240 532 331 538H344Q437 538 497 458T557 262Q557 143 497 65T340 -13ZM311 457Q268 457 240 430T202 367T192 285Q192 75 310 75Q368 75 396
129T425 256Q425 293 420 325T404 388T368 438T311 457Z" />
<glyph unicode="c" glyph-name="c" horiz-adv-x="549" d="M33 252Q33 135 108 61T291 -13Q380 -13 445 36T528 164L464 188Q419 79 327 79Q249 79 209 134T169 280Q169 359 210 416T322 473Q400 473 432 421Q408 421 387 405T366 359V353Q368 326 386 311T435
296Q471 296 493 319T515 369Q515 414 496 448T444 502T377 530T305 539Q178 539 106 457T33 252Z" />
<glyph unicode="d" glyph-name="d" horiz-adv-x="608" d="M251 -13Q346 -13 399 92V0H600V84H524V742H295V662H399V460Q346 538 260 538Q159 538 97 460T34 262T94 65T251 -13ZM280 457Q323 457 351 430T389 367T399 285Q399 75 281 75Q223 75 195 129T166 256Q166
293 171 325T187 388T223 438T280 457Z" />
<glyph unicode="e" glyph-name="e" horiz-adv-x="562" d="M292 -14Q179 -13 106 62T33 261Q33 377 105 458T282 539Q389 539 458 469T529 267H165Q165 265 165 260T164 251Q164 183 201 132T312 83Q357 84 391 114T443 185L515 153Q496 73 435 30T295 -14H292ZM294
465Q244 465 210 424T169 330H402Q402 389 374 427T294 465Z" />
<glyph unicode="f" glyph-name="f" horiz-adv-x="408" d="M125 447H21V524H125Q125 773 331 773Q408 773 452 732T496 646Q496 609 475 590T425 570Q398 570 378 586T357 631Q357 656 375 670T414 687Q413 704 394 716T351 729Q315 729 284 698T253 604V524H368V447H253V84H364V0H21V84H125V447Z"
/>
<glyph unicode="g" glyph-name="g" horiz-adv-x="597" d="M166 268Q166 231 171 199T187 136T223 86T280 67Q323 67 351 94T389 157T399 239Q399 450 281 450Q223 450 195 396T166 268ZM291 -257Q208 -257 150 -229T88 -135V-132Q88 -102 111 -81T169 -60Q199
-60 218 -79T238 -127Q238 -153 220 -185Q256 -191 261 -191Q338 -191 368 -147T399 0V64Q346 -14 260 -14Q159 -14 97 64T34 262T94 459T251 538Q353 538 421 447L462 524H583V447H524V18Q524 -40 512 -88T474 -175T401 -235T291 -257Z" />
<glyph unicode="h" glyph-name="h" horiz-adv-x="684" d="M582 350V84H678V0H368V84H457V343Q457 391 432 421T369 451Q233 451 233 262V84H322V0H15V84H108V662H4V742H233V438Q284 538 407 538Q434 538 459 532T514 508T563 450T582 350Z" />
<glyph unicode="i" glyph-name="i" horiz-adv-x="334" d="M245 524H23V447H121V84H24V0H330V84H245V524ZM90 700Q90 666 115 641T174 616Q209 616 234 641T259 700T234 759T174 785T115 760T90 700Z" />
<glyph unicode="j" glyph-name="j" horiz-adv-x="310" d="M90 700Q90 735 115 760T174 785T233 760T259 700T234 641T174 616Q140 616 115 641T90 700ZM68 -228Q-8 -228 -51 -200T-95 -123Q-95 -85 -76 -62T-16 -39Q16 -39 34 -59T53 -108Q53 -151 25 -163Q45
-171 67 -171Q93 -171 110 -145T128 -56V447H14V524H253V-41Q253 -131 203 -179T68 -228Z" />
<glyph unicode="k" glyph-name="k" horiz-adv-x="641" d="M235 742H11V662H110V84H20V0H308V84H235V200L300 250L396 85Q427 35 461 11T543 -14Q598 -14 633 1L627 92Q603 82 568 82Q532 82 498 125Q487 139 471 162T439 210T409 256T386 292L377 307L527 447H618V524H319V447H407L235
286V742Z" />
<glyph unicode="l" glyph-name="l" horiz-adv-x="351" d="M247 742H23V662H122V84H21V0H343V84H247V742Z" />
<glyph unicode="m" glyph-name="m" horiz-adv-x="937" d="M308 0H20V84H115V447H20V519L237 530V433Q258 484 304 511T400 538Q420 538 435 535T470 523T505 491T531 433Q550 488 597 513T700 538Q724 538 745 532T793 509T836 452T852 353V84H931V0H662V84H727V371Q727
413 707 434T658 456Q614 456 583 417T551 334V84H618V0H357V84H426V371Q426 410 408 433T363 457Q305 457 273 391T240 243V84H308V0Z" />
<glyph unicode="n" glyph-name="n" horiz-adv-x="682" d="M587 348Q587 396 574 432T543 487T500 519T455 534T415 538Q355 538 307 512T235 431V529L20 518V447H113V84H20V0H327V84H238V262Q238 441 362 451Q402 454 432 426T462 337V84H373V0H676V84H587V348Z" />
<glyph unicode="o" glyph-name="o" horiz-adv-x="590" d="M296 -13Q413 -13 485 65T557 262Q557 381 485 459T295 538T105 460T33 262T105 65T296 -13ZM165 457T295 457T425 256Q425 223 419 193T398 136T358 92T296 75Q249 75 218 104T176 171T165 256Q165 457 295 457Z" />
<glyph unicode="p" glyph-name="p" horiz-adv-x="605" d="M-13 -196H311V-106H207V66Q254 -13 353 -13Q453 -13 512 64T572 262Q572 381 514 459T360 538Q250 538 207 432V524H-13V447H82V-109H-13V-196ZM326 67Q283 67 255 94T217 157T207 239Q207 449 325 449Q383
449 411 395T440 268Q440 231 435 199T419 136T383 86T326 67Z" />
<glyph unicode="q" glyph-name="q" horiz-adv-x="587" d="M293 -195H617V-110H523V524H461L420 447Q352 538 250 538Q154 538 94 460T33 262T95 65T259 -14Q345 -14 398 64V-110H293V-195ZM279 67Q246 67 222 85T187 135T170 199T165 268Q165 341 193 395T280
450Q398 450 398 239Q398 194 388 158T350 94T279 67Z" />
<glyph unicode="r" glyph-name="r" horiz-adv-x="477" d="M344 84V0H25V84H114V447H20V518L236 530V435Q253 479 291 504T378 532Q420 534 450 513T480 441Q480 403 456 379T401 355Q372 355 350 371T328 418Q328 450 337 457Q239 449 239 258V84H344Z" />
<glyph unicode="s" glyph-name="s" horiz-adv-x="518" d="M258 -15Q216 -15 179 -8T107 14T52 57T32 125Q32 155 54 175T104 196Q129 196 147 181T165 136Q165 123 155 108T134 85Q182 61 237 61Q287 61 319 78T352 128Q352 146 345 159T320 182T289 197T246 211T203
225Q159 240 138 249T89 278T50 324T38 390Q38 428 58 458T110 504T174 529T237 537Q277 537 312 532T385 514T447 473T470 403Q470 373 448 353T398 333Q373 333 355 348T337 393Q337 408 348 423T370 442Q330 470 269 470Q156 470 156 411Q156 391 169 378T195
360T250 342Q262 338 269 336Q364 307 397 288Q475 242 475 152Q475 94 441 55T359 0T258 -15Z" />
<glyph unicode="t" glyph-name="t" horiz-adv-x="434" d="M82 448V136Q82 64 130 26T235 -13Q329 -13 367 36T406 188V241H335V182Q335 82 271 82Q247 82 233 96T215 123T211 149V447H389V524H211V725Q211 742 192 742Q175 742 170 725Q110 527 -23 482V448H82Z" />
<glyph unicode="u" glyph-name="u" horiz-adv-x="626" d="M201 524H-12V447H76V171Q76 123 89 88T122 34T167 4T212 -10T251 -13Q304 -13 352 15T416 94V-4L619 5V84H538V524H322V447H413V236Q413 162 381 118T287 73Q251 73 226 94T201 167V524Z" />
<glyph unicode="v" glyph-name="v" horiz-adv-x="645" d="M329 -11Q300 -11 282 11T236 103L92 447H1V524H314V447H238L347 147L464 447H381V524H644V447H567L431 116Q400 39 380 14T329 -11Z" />
<glyph unicode="w" glyph-name="w" horiz-adv-x="863" d="M589 -11Q562 -11 548 14T500 130L435 307L369 135Q333 40 316 15T267 -11Q237 -11 220 16T182 120L90 447H7V524H296V447H224L293 147L399 437H491L596 147L674 447H594V524H856V447H770L676 135Q646
37 632 13T589 -11Z" />
<glyph unicode="x" glyph-name="x" horiz-adv-x="676" d="M291 0H17V84H94L272 261L102 447H24V524H314V447H253L350 338L462 447H372V524H651V447H569L402 280L574 84H659V0H366V84H430L325 203L209 84H291V0Z" />
<glyph unicode="y" glyph-name="y" horiz-adv-x="631" d="M153 -242Q83 -242 37 -210T-9 -117Q-9 -85 14 -62T72 -39Q103 -39 122 -56T141 -102Q141 -120 133 -140T114 -171Q126 -174 143 -174Q185 -174 212 -131T259 0L72 447H-19V524H294V447H218L336 127L438
447H365V524H628V447H551L387 -2Q374 -38 365 -58T341 -111T309 -163T271 -202T221 -231T159 -242H153Z" />
<glyph unicode="z" glyph-name="z" horiz-adv-x="572" d="M373 447H149V297H49V524H497L506 427L195 77H435V226H532V0H64L53 93L373 447Z" />
<glyph unicode="{" glyph-name="braceleft" horiz-adv-x="433" d="M174 315Q223 304 240 264T258 125Q258 118 258 106Q258 68 258 52T259 11T264 -23T273 -46T288 -64T310 -73T340 -80T381 -81V-143Q225 -143 167 -88T108 115Q108 134 108 166Q109 240 102 256T51
272H-5V358H51Q94 358 101 374T108 464Q108 496 108 515Q108 662 166 717T381 773V711Q362 711 348 711T321 707T301 701T285 690T273 677T266 658T262 635T259 604T258 568T258 524Q258 512 258 505Q258 407 241 367T174 315Z" />
<glyph unicode="|" glyph-name="bar" horiz-adv-x="338" d="M218 -120H120V784H218V-120Z" />
<glyph unicode="}" glyph-name="braceright" horiz-adv-x="433" d="M174 315Q223 304 240 264T258 125Q258 118 258 106Q258 68 258 52T259 11T264 -23T273 -46T288 -64T310 -73T340 -80T381 -81V-143Q225 -143 167 -88T108 115Q108 134 108 166Q109 240 102 256T51
272H-5V358H51Q94 358 101 374T108 464Q108 496 108 515Q108 662 166 717T381 773V711Q362 711 348 711T321 707T301 701T285 690T273 677T266 658T262 635T259 604T258 568T258 524Q258 512 258 505Q258 407 241 367T174 315Z" />
<glyph unicode="~" glyph-name="asciitilde" horiz-adv-x="518" d="M385 428Q368 428 279 398T148 367Q81 367 52 400T22 524H93Q93 491 102 480T133 468Q149 468 238 496T370 524Q437 524 466 491T496 368H425Q425 401 415 414T385 428Z" />
<glyph unicode="&#xa2;" glyph-name="cent" horiz-adv-x="560" d="M273 630V-104H316V630H273ZM33 252Q33 135 108 61T291 -13Q380 -13 445 36T528 164L464 188Q419 79 327 79Q249 79 209 134T169 280Q169 359 210 416T322 473Q400 473 432 421Q408 421 387 405T366
359V353Q368 326 386 311T435 296Q471 296 493 319T515 369Q515 414 496 448T444 502T377 530T305 539Q178 539 106 457T33 252Z" />
<glyph unicode="&#xa3;" glyph-name="sterling" horiz-adv-x="621" d="M559 242V0H83L52 83Q82 118 100 144T136 214T153 305V315H69L80 389H146Q137 429 114 482T90 564V566Q90 643 157 689T334 737H339Q429 737 495 693T561 570Q561 528 538 505T475 481Q443
481 420 500T393 552V557Q393 581 409 601T443 627Q397 665 346 665Q215 665 215 567Q215 537 242 480T277 389H414L401 316H285V306Q285 182 174 84H468V242H559Z" />
<glyph unicode="&#xa4;" glyph-name="currency" horiz-adv-x="581" d="M303 656Q237 656 197 610T157 498Q157 423 197 383T304 342Q370 342 411 385T452 498Q452 569 411 612T303 656ZM497 266L444 319Q380 274 302 274Q222 274 163 318L110 265L67 307L119 359Q74
417 74 496Q74 579 124 639L67 696L109 738L167 680Q227 723 304 723T442 681L498 737L540 695L486 641Q535 579 535 496Q535 418 487 360L539 308L497 266Z" />
<glyph unicode="&#xa5;" glyph-name="yen" horiz-adv-x="821" d="M608 282V218H192V282H608ZM608 383V319H192V383H608ZM210 0V87H329V321L125 652H6V742H379V652H270L425 397L589 652H479V742H808V652H694L474 319V87H586V0H210Z" />
<glyph unicode="&#xa6;" glyph-name="brokenbar" horiz-adv-x="338" d="M218 219V-120H120V219H218ZM218 784V445H120V784H218Z" />
<glyph unicode="&#xa7;" glyph-name="section" horiz-adv-x="505" d="M342 285L344 287Q366 306 366 333Q366 351 357 364T329 387T293 402T248 416T203 430Q197 432 184 437T164 444Q146 424 146 401Q146 383 154 370T181 345T214 329T259 313T303 299Q309 297
322 292T342 285ZM248 -8Q198 -8 153 3T72 46T36 126Q36 156 58 176T108 196Q133 196 151 181T169 136Q169 114 155 100T125 83Q165 49 239 49Q286 49 318 67T350 118Q350 138 337 151T311 169T256 187Q244 191 237 193Q142 222 109 241Q31 287 31 377Q31 445 80
489Q38 528 38 595Q38 643 76 676T159 722T246 735Q285 735 319 730T390 712T448 671T470 601Q470 571 448 551T398 531Q373 531 355 546T337 591Q337 613 352 628T381 645Q339 681 269 681Q222 681 189 663T156 613Q156 582 179 568T269 534Q275 532 303 524T340
513T373 500T407 483T433 463T456 435T469 401T475 357Q475 288 425 243Q468 208 468 139Q468 88 432 54T348 6T248 -8Z" />
<glyph unicode="&#xa8;" glyph-name="dieresis" horiz-adv-x="516" d="M316 643Q316 616 335 596T383 576Q410 576 430 596T451 643Q451 671 431 691T383 711Q355 711 336 691T316 643ZM84 643Q84 616 103 596T151 576Q178 576 198 596T218 643Q218 671 198 691T151
711Q123 711 104 691T84 643Z" />
<glyph unicode="&#xa9;" glyph-name="copyright" horiz-adv-x="832" d="M570 -13T416 -13T152 98T41 363T151 627T416 737T680 627T791 363Q791 208 681 98ZM281 34T417 34T650 131T747 364T651 597T417 694Q281 694 184 597T87 364T184 131ZM608 294Q593 232
544 196T431 159Q344 160 285 222T226 375Q227 469 285 529T436 590Q497 590 546 553T595 456Q595 435 578 417T533 398Q511 398 495 412T479 448Q479 472 499 486T537 500Q504 550 435 550Q378 550 342 504T306 377Q306 313 343 263T441 210Q489 210 524 241T570
313L608 294Z" />
<glyph unicode="&#xaa;" glyph-name="ordfeminine" horiz-adv-x="659" d="M422 291Q335 293 314 370Q293 334 255 313T170 292Q118 292 88 318T58 396Q58 433 84 458T147 498T220 525T283 557T309 605Q309 650 284 672T219 695Q171 695 137 666Q166 666 181 651T198
613V609Q198 585 180 569T133 553T87 575T69 628V630Q69 678 118 708T232 739Q306 739 358 706T410 596V428Q410 358 448 358Q460 358 467 363T478 381T482 402T483 426V467H532V424Q532 349 504 320T425 291H422ZM191 354Q224 354 265 385T307 451V519Q277 495
245 477T195 452T166 432T154 399Q154 354 191 354Z" />
<glyph unicode="&#xac;" glyph-name="logicalnot" horiz-adv-x="485" d="M414 420H23V341H298V163H414V420Z" />
<glyph unicode="&#xae;" glyph-name="registered" horiz-adv-x="832" d="M570 -13T416 -13T152 98T41 363T151 627T416 737T680 627T791 363Q791 208 681 98ZM281 34T417 34T650 131T747 364T651 597T417 694Q281 694 184 597T87 364T184 131ZM548 160Q499 160
477 187T445 278Q440 303 431 324T413 354T400 364H350V206H400V168H214V206H275V540H214V579H373Q403 579 424 578T476 571T524 553T556 520T570 468Q569 392 461 372Q485 367 501 353T522 320T532 281T537 245T543 218T560 207Q591 207 591 262V297H641V256Q641
202 613 181T548 160ZM350 397H375Q436 397 465 413T494 468Q493 510 466 525T373 540H350V397Z" />
<glyph unicode="&#xaf;" glyph-name="overscore" horiz-adv-x="406" d="M355 635H51V722H355V635Z" />
<glyph unicode="0;" glyph-name="degree" horiz-adv-x="370" d="M31 594Q31 531 72 491T185 450T297 491T339 594T298 696T185 737T73 697T31 594ZM151 694T185 694T245 668T272 594Q272 549 245 523T184 497Q149 497 124 522T98 594T124 667Z" />
<glyph unicode="1;" glyph-name="plusminus" horiz-adv-x="696" d="M531 0H167V87H531V0ZM152 301V398H544V301H152ZM292 525H404V185H292V525Z" />
<glyph unicode="2;" glyph-name="twosuperior" horiz-adv-x="509" d="M413 401L426 271L387 267L352 335H110Q103 408 102 408Q260 525 268 532Q300 557 311 576T323 622Q323 651 303 671T249 692Q204 692 171 657Q186 653 198 641T210 611Q210 583 194 568T151
552Q122 552 106 572T89 616V619Q89 666 141 703T264 741Q334 741 372 707T410 605Q410 568 389 535T305 463L204 401H413Z" />
<glyph unicode="4;" glyph-name="acute" horiz-adv-x="620" d="M484 698L419 788Q276 687 187 611L212 576Q237 584 275 597T388 643T484 698Z" />
<glyph unicode="6;" glyph-name="paragraph" horiz-adv-x="591" d="M389 359V-28H306V359H276Q179 359 126 412T72 540T124 668T271 722H540V-28H460V359H389Z" />
<glyph unicode="7;" glyph-name="middot" horiz-adv-x="397" d="M288 471T288 434T262 371T198 344T135 370T108 434T134 497T198 524T261 498Z" />
<glyph unicode="8;" glyph-name="cedilla" horiz-adv-x="165" d="M150 -135Q150 -163 117 -183T51 -210L18 -217L4 -182Q75 -169 75 -150Q75 -140 52 -117T29 -82Q29 -54 59 -27T131 0H150V-135Z" />
<glyph unicode="b;" glyph-name="guillemotright" horiz-adv-x="467" d="M50 116V247L167 328L50 403V528L239 367V281L50 116ZM263 116V247L380 328L263 403V528L452 367V281L263 116Z" />
<glyph unicode="c;" glyph-name="onequarter" horiz-adv-x="917" d="M672 178V335L572 178H672ZM822 56V0H601V56H672V122H502V182L656 398H758V178H822V122H758V56H822ZM127 362V418H190V678L127 661V724L276 762V418H337V362H127ZM681 737L161 14L217 -30L737
693L681 737Z" />
<glyph unicode="d;" glyph-name="onehalf" horiz-adv-x="917" d="M895 66L908 -64L869 -68L834 0H592Q585 73 584 73Q742 190 750 197Q782 222 793 241T805 287Q805 316 785 336T731 357Q686 357 653 322Q668 318 680 306T692 276Q692 248 676 233T633 217Q604
217 588 237T571 281V284Q571 331 623 368T746 406Q816 406 854 372T892 270Q892 233 871 200T787 128L686 66H895ZM127 362V418H190V678L127 661V724L276 762V418H337V362H127ZM681 737L161 14L217 -30L737 693L681 737Z" />
<glyph unicode="e;" glyph-name="threequarters" horiz-adv-x="917" d="M672 178V335L572 178H672ZM822 56V0H601V56H672V122H502V182L656 398H758V178H822V122H758V56H822ZM127 362V418H190V678L127 661V724L276 762V418H337V362H127ZM681 737L161 14L217
-30L737 693L681 737Z" />
<glyph unicode="f;" glyph-name="questiondown" horiz-adv-x="532" d="M280 519H322Q322 470 308 427T273 352T232 292T198 233T183 173Q183 63 298 63Q332 63 362 77T405 119Q376 119 350 136T324 191Q324 227 346 250T403 273Q446 273 471 246T499 186V176Q499
91 431 41T272 -10Q44 -10 40 176V179Q40 219 61 257T113 327T178 388T240 452T280 519ZM218 657Q218 689 242 713T299 737Q332 737 355 713T379 657Q379 624 356 600T299 576Q267 576 243 600T218 657Z" />
<glyph unicode="6;" glyph-name="AE" horiz-adv-x="1129" d="M530 334V652L376 334H530ZM350 0H-2V87H106L392 652H284V742H1085V459H965V652H669V417H796V517H881V217H796V341H669V87H965V279H1085V0H530V258H338L257 87H350V0Z" />
<glyph unicode="7;" glyph-name="Ccedilla" horiz-adv-x="755" d="M442 -135Q442 -163 409 -183T343 -210L310 -217L296 -182Q367 -169 367 -150Q367 -140 344 -117T321 -82Q321 -54 351 -27T423 0H442V-135ZM706 264Q687 133 608 60T391 -13Q234 -13 139
101T44 379Q44 530 146 643T405 757Q469 757 528 734T630 657T672 532Q672 498 646 470T576 441Q541 441 518 459T493 512V519Q493 557 518 577T572 597Q528 662 419 663Q350 664 301 620T231 512T209 377Q209 261 266 176T426 90Q471 90 505 105T561 147T594 202T616
264H706Z" />
<glyph unicode="&#xd0;" glyph-name="Eth" horiz-adv-x="822" d="M284 0H20V87H139V327H47V399H139V652H20V742H258Q342 742 409 735T548 703T668 640T747 530T778 366Q778 0 284 0ZM284 87Q340 87 385 92T476 116T553 163T603 243T623 362Q623 436 603 490T553
574T475 623T385 646T284 651V399H406V327H284V87Z" />
<glyph unicode="&#xd7;" glyph-name="multiply" horiz-adv-x="696" d="M475 486L554 407L221 74L142 153L475 486ZM142 407L221 486L554 153L475 74L142 407Z" />
<glyph unicode="&#xd8;" glyph-name="Oslash" horiz-adv-x="776" d="M699 750L49 -18L81 -44L731 724L699 750ZM394 662Q453 661 498 616T564 507T585 370T564 234T498 126T394 82T290 126T224 235T203 372T224 509T290 618T394 662ZM310 -13T394 -13T546 20T657
109T721 232T744 372T722 511T657 634T547 723T394 757T242 724T131 635T67 512T44 372T66 233T131 110T241 21Z" />
<glyph unicode="&#xde;" glyph-name="Thorn" horiz-adv-x="725" d="M23 0V87H142V655H20V742H406V655H287V577H379Q411 577 433 577T489 572T547 560T598 539T641 504T669 452T680 381T669 310T641 259T595 224T540 202T473 190T405 186T332 185H287V87H409V0H23ZM341
262Q377 262 397 263T445 270T488 287T514 321T525 377Q525 453 480 476T331 499H287V262H341Z" />
<glyph unicode="&#xdf;" glyph-name="germandbls" horiz-adv-x="675" d="M161 457H29V524H161V457ZM250 479V0H29V87H125V479Q125 599 189 663T363 727Q457 727 518 685T580 556Q580 516 559 482T512 430T465 396T443 376Q443 368 474 353T544 320T614 263T646
171Q646 133 632 104T592 56T536 26T467 9T399 2T333 0V87Q396 87 436 95T493 120T515 151T520 186Q520 220 490 247T424 289T357 327T327 374V376Q328 402 349 426T394 467T438 509T458 561Q458 607 437 625T367 643Q305 643 278 604T250 479Z" />
<glyph unicode="&#xe5;" glyph-name="aring" horiz-adv-x="659" d="M174 731T174 691T203 621T283 590Q334 590 363 620T392 690T363 760T283 790T203 761ZM262 749T283 749T319 734T334 690Q334 663 319 648T282 632Q262 632 247 647T231 690T246 733ZM502 -14H498Q385
-12 359 83Q333 39 286 13T181 -13Q118 -13 81 20T43 116Q43 161 75 193T152 242T243 275T321 315T353 373Q353 476 251 476Q208 476 175 460Q191 458 205 436T220 393V389Q220 359 198 339T140 319Q103 319 82 342T60 402V404Q61 464 122 501T262 539Q319 539
365 525T444 469T478 363V155Q478 69 527 69Q574 69 574 153V218H639V150Q639 -14 502 -14ZM207 64Q247 64 298 102T350 183V272Q306 237 254 210T182 166T162 119Q162 64 207 64Z" />
<glyph unicode="&#xe6;" glyph-name="ae" horiz-adv-x="844" d="M613 -14Q547 -14 488 20T406 105Q328 -14 180 -14Q119 -14 80 28T40 124Q40 201 107 241T356 313V353Q356 467 253 467H245Q201 465 165 445Q179 440 190 422T202 389Q202 359 180 340T129 320Q99
320 78 342T57 407Q57 461 115 499T252 538Q387 538 430 447Q486 534 615 539H623Q688 539 734 500T799 406T818 288L486 252Q491 76 623 76Q668 76 697 104T750 185L822 153Q804 76 748 31T613 -14ZM492 329L718 356Q717 399 692 434T625 470Q570 468 535 432T492
329ZM216 68Q252 68 286 88T337 129T377 180L365 232Q239 211 196 190T153 129Q153 107 171 88T216 68Z" />
<glyph unicode="&#xe7;" glyph-name="ccedilla" horiz-adv-x="557" d="M348 -135Q348 -163 315 -183T249 -210L216 -217L202 -182Q273 -169 273 -150Q273 -140 250 -117T227 -82Q227 -54 257 -27T329 0H348V-135ZM33 252Q33 135 108 61T291 -13Q380 -13 445 36T528
164L464 188Q419 79 327 79Q249 79 209 134T169 280Q169 359 210 416T322 473Q400 473 432 421Q408 421 387 405T366 359V353Q368 326 386 311T435 296Q471 296 493 319T515 369Q515 414 496 448T444 502T377 530T305 539Q178 539 106 457T33 252Z" />
<glyph unicode="&#xe9;" glyph-name="eacute" horiz-adv-x="588" d="M292 -14Q179 -13 106 62T33 261Q33 377 105 458T282 539Q389 539 458 469T529 267H165Q165 265 165 260T164 251Q164 183 201 132T312 83Q357 84 391 114T443 185L515 153Q496 73 435 30T295
-14H292ZM294 465Q244 465 210 424T169 330H402Q402 389 374 427T294 465ZM484 698L419 788Q276 687 187 611L212 576Q237 584 275 597T388 643T484 698Z" />
<glyph unicode="&#xea;" glyph-name="ecircumflex" horiz-adv-x="568" d="M304 690Q321 675 346 645T388 592L404 569L462 623L302 797L143 626L201 571Q266 656 304 690ZM292 -14Q179 -13 106 62T33 261Q33 377 105 458T282 539Q389 539 458 469T529 267H165Q165
265 165 260T164 251Q164 183 201 132T312 83Q357 84 391 114T443 185L515 153Q496 73 435 30T295 -14H292ZM294 465Q244 465 210 424T169 330H402Q402 389 374 427T294 465Z" />
<glyph unicode="&#xeb;" glyph-name="edieresis" horiz-adv-x="562" d="M333 643Q333 616 352 596T400 576Q427 576 447 596T468 643Q468 671 448 691T400 711Q372 711 353 691T333 643ZM101 643Q101 616 120 596T168 576Q195 576 215 596T235 643Q235 671 215
691T168 711Q140 711 121 691T101 643ZM292 -14Q179 -13 106 62T33 261Q33 377 105 458T282 539Q389 539 458 469T529 267H165Q165 265 165 260T164 251Q164 183 201 132T312 83Q357 84 391 114T443 185L515 153Q496 73 435 30T295 -14H292ZM294 465Q244 465 210
424T169 330H402Q402 389 374 427T294 465Z" />
<glyph unicode="&#xf5;" glyph-name="otilde" horiz-adv-x="590" d="M296 -13Q413 -13 485 65T557 262Q557 381 485 459T295 538T105 460T33 262T105 65T296 -13ZM165 457T295 457T425 256Q425 223 419 193T398 136T358 92T296 75Q249 75 218 104T176 171T165
256Q165 457 295 457ZM370 655Q355 655 310 632T233 608Q145 608 145 747H208Q208 701 240 701Q255 701 300 724T377 748Q465 748 465 609H402Q402 655 370 655Z" />
<glyph unicode="&#xf7;" glyph-name="divide" horiz-adv-x="446" d="M385 258H61V334H385V258ZM165 157T165 131T183 87T228 68T273 87T292 131Q292 157 273 176T228 195T184 176ZM165 486T165 460T183 416T228 397T273 416T292 460Q292 486 273 505T228 524T184 505Z" />
<glyph unicode="&#xf8;" glyph-name="oslash" horiz-adv-x="581" d="M543 581L23 -28L55 -54L575 555L543 581ZM296 -13Q413 -13 485 65T557 262Q557 381 485 459T295 538T105 460T33 262T105 65T296 -13ZM165 457T295 457T425 256Q425 223 419 193T398 136T358
92T296 75Q249 75 218 104T176 171T165 256Q165 457 295 457Z" />
<glyph unicode="&#xfe;" glyph-name="thorn" horiz-adv-x="605" d="M-13 -196H311V-106H207V66Q254 -13 353 -13Q453 -13 512 64T572 262Q572 381 514 459T360 538Q250 538 207 432V742H-21V662H82V-109H-13V-196ZM326 67Q283 67 255 94T217 157T207 239Q207 449
325 449Q383 449 411 395T440 268Q440 231 435 199T419 136T383 86T326 67Z" />
</font>
</defs>
</svg>
